<svg width="70" height="70" viewBox="0 0 70 70" fill="none" xmlns="http://www.w3.org/2000/svg">
<path d="M34.9997 20.4167V14.5833C34.9997 11.375 32.3747 8.75 29.1663 8.75H11.6663C8.45801 8.75 5.83301 11.375 5.83301 14.5833V55.4167C5.83301 58.625 8.45801 61.25 11.6663 61.25H58.333C61.5413 61.25 64.1663 58.625 64.1663 55.4167V26.25C64.1663 23.0417 61.5413 20.4167 58.333 20.4167H34.9997ZM17.4997 55.4167H11.6663V49.5833H17.4997V55.4167ZM17.4997 43.75H11.6663V37.9167H17.4997V43.75ZM17.4997 32.0833H11.6663V26.25H17.4997V32.0833ZM17.4997 20.4167H11.6663V14.5833H17.4997V20.4167ZM29.1663 55.4167H23.333V49.5833H29.1663V55.4167ZM29.1663 43.75H23.333V37.9167H29.1663V43.75ZM29.1663 32.0833H23.333V26.25H29.1663V32.0833ZM29.1663 20.4167H23.333V14.5833H29.1663V20.4167ZM55.4163 55.4167H34.9997V49.5833H40.833V43.75H34.9997V37.9167H40.833V32.0833H34.9997V26.25H55.4163C57.0205 26.25 58.333 27.5625 58.333 29.1667V52.5C58.333 54.1042 57.0205 55.4167 55.4163 55.4167ZM52.4997 32.0833H46.6663V37.9167H52.4997V32.0833ZM52.4997 43.75H46.6663V49.5833H52.4997V43.75Z" fill="url(#paint0_linear_321_114)"/>
<defs>
<linearGradient id="paint0_linear_321_114" x1="34.9997" y1="8.75" x2="34.9997" y2="61.25" gradientUnits="userSpaceOnUse">
<stop stop-color="#4A23E5"/>
<stop offset="1" stop-color="#0089FF"/>
</linearGradient>
</defs>
</svg>
