<svg width="60" height="60" viewBox="0 0 60 60" fill="none" xmlns="http://www.w3.org/2000/svg">
<path d="M6.37937 3.49129C6.33234 3.49057 6.28529 3.49104 6.23828 3.4927C5.68891 3.5111 5.31086 3.6959 5.05316 3.9536C4.70957 4.29719 4.49535 4.85465 4.6327 5.74715C4.77027 6.63965 5.29867 7.8277 6.42238 9.13868C14.3787 18.4211 22.0007 27.3684 27.9501 33.9789C29.3883 35.5769 30.7266 37.035 31.9491 38.3306C33.3665 34.592 36.0003 31.9855 39.3204 30.7468C38.0519 29.5516 36.6326 28.2491 35.0786 26.8505C28.4683 20.9011 19.5208 13.2789 10.2385 5.32258C8.92762 4.19876 7.73945 3.67047 6.84695 3.5329C6.69221 3.50847 6.536 3.49457 6.37937 3.49129ZM50.3375 3.61352C50.3015 3.61317 50.2672 3.61399 50.2349 3.61622C49.9757 3.63344 49.8435 3.69286 49.6987 3.83782L46.4666 7.06985L52.9302 13.5332L56.162 10.3012C56.3071 10.1563 56.3665 10.0244 56.3835 9.76516C56.4011 9.50618 56.3402 9.12837 56.1721 8.69126C55.8358 7.81704 55.085 6.73809 54.1735 5.82661C53.262 4.91512 52.183 4.1643 51.3088 3.82797C50.9263 3.6809 50.5895 3.61586 50.3377 3.61352H50.3375ZM44.9752 8.56118L43.815 9.72145L44.9752 10.8814L46.4666 12.3731L47.6268 13.533L49.1185 15.0247L50.2784 16.1848L51.4386 15.0247L44.9752 8.56118ZM42.3236 11.2129L32.0827 21.4539L33.3093 22.5475L43.4838 12.3731L42.3236 11.2129ZM44.9752 13.8647L34.8863 23.9534L36.1131 25.0469L46.1353 15.0247L44.9752 13.8646V13.8647ZM47.627 16.516L37.6901 26.4529L38.917 27.5465L48.7872 17.6763L47.6273 16.5161H47.627V16.516ZM22.5657 30.9711L8.51523 45.0217L9.67516 46.1816L23.6605 32.1963L22.5657 30.9711ZM41.0414 32.3945C37.4718 33.2883 34.8024 35.8145 33.5874 40.0373C34.2497 40.7152 34.8713 41.3363 35.4366 41.8779C36.3249 42.7292 37.0885 43.4022 37.6878 43.8651C37.896 41.8465 38.8649 39.9906 40.2243 38.6279C41.4666 37.3824 43.0949 36.5178 44.8093 36.3905C44.3557 35.8238 43.7383 35.1308 42.9777 34.337C42.4108 33.7456 41.7571 33.0922 41.0414 32.3945ZM25.0684 33.7713L11.1666 47.6729L12.3268 48.8332L26.1637 34.9965L25.0684 33.7713ZM27.5717 36.5713L13.8184 50.3246L14.9781 51.4847L28.6668 37.7965L27.5717 36.5713ZM45.1841 38.4823C43.9657 38.4984 42.7315 39.1011 41.7175 40.1177C40.3655 41.4729 39.5291 43.4986 39.8112 45.4732C40.4363 49.8493 42.5944 53.1854 45.6073 54.9931C48.2707 56.5911 51.6368 57.0263 55.4092 55.8114C52.5707 55.3415 49.9629 52.2132 49.7611 49.876C51.0068 51.3776 52.5666 52.7526 54.2642 53.5967C53.1063 50.9508 53.1859 48.2702 52.9648 46.059C52.8064 44.4743 52.5088 43.1314 51.6316 41.9384C50.7543 40.7454 49.2382 39.6181 46.3886 38.6682C46.0004 38.539 45.5932 38.4761 45.1841 38.4823ZM7.40875 46.8983L7.4084 46.8985L7.40863 46.8987L7.40875 46.8983ZM7.40863 46.8987L5.98867 50.4495L9.55023 54.0114L13.1016 52.5911L12.327 51.8163L10.835 50.3248L9.67504 49.1649L8.18324 47.6733L7.40863 46.8987ZM5.13578 52.5806L3.61328 56.3863L7.4193 54.8638L5.13578 52.5806Z" fill="url(#paint0_linear_321_112)"/>
<defs>
<linearGradient id="paint0_linear_321_112" x1="29.9999" y1="3.49097" x2="29.9999" y2="56.5088" gradientUnits="userSpaceOnUse">
<stop stop-color="#0089FF"/>
<stop offset="1" stop-color="#491CE4"/>
</linearGradient>
</defs>
</svg>
