<svg width="70" height="70" viewBox="0 0 70 70" fill="none" xmlns="http://www.w3.org/2000/svg">
<path d="M48.8988 40.7887C49.0005 40.8903 49.0812 41.0109 49.1362 41.1437C49.1913 41.2764 49.2196 41.4188 49.2196 41.5625C49.2196 41.7062 49.1913 41.8486 49.1362 41.9813C49.0812 42.1141 49.0005 42.2347 48.8988 42.3363L42.3363 48.8988C42.1311 49.1041 41.8527 49.2194 41.5625 49.2194C41.2723 49.2194 40.9939 49.1041 40.7887 48.8988C40.5834 48.6936 40.4681 48.4152 40.4681 48.125C40.4681 47.8348 40.5834 47.5564 40.7887 47.3512L46.5773 41.5625L40.7887 35.7738C40.687 35.6722 40.6064 35.5516 40.5514 35.4188C40.4964 35.286 40.4681 35.1437 40.4681 35C40.4681 34.8563 40.4964 34.714 40.5514 34.5812C40.6064 34.4484 40.687 34.3278 40.7887 34.2262C40.8903 34.1245 41.0109 34.0439 41.1437 33.9889C41.2765 33.9339 41.4188 33.9056 41.5625 33.9056C41.7062 33.9056 41.8485 33.9339 41.9813 33.9889C42.1141 34.0439 42.2347 34.1245 42.3363 34.2262L48.8988 40.7887ZM29.2113 34.2262C29.1097 34.1245 28.9891 34.0438 28.8563 33.9888C28.7236 33.9337 28.5812 33.9054 28.4375 33.9054C28.2938 33.9054 28.1514 33.9337 28.0187 33.9888C27.8859 34.0438 27.7653 34.1245 27.6637 34.2262L21.1012 40.7887C20.9995 40.8903 20.9188 41.0109 20.8638 41.1437C20.8087 41.2764 20.7804 41.4188 20.7804 41.5625C20.7804 41.7062 20.8087 41.8486 20.8638 41.9813C20.9188 42.1141 20.9995 42.2347 21.1012 42.3363L27.6637 48.8988C27.7653 49.0005 27.8859 49.0811 28.0187 49.1361C28.1515 49.1911 28.2938 49.2194 28.4375 49.2194C28.5812 49.2194 28.7235 49.1911 28.8563 49.1361C28.9891 49.0811 29.1097 49.0005 29.2113 48.8988C29.313 48.7972 29.3936 48.6766 29.4486 48.5438C29.5036 48.411 29.5319 48.2687 29.5319 48.125C29.5319 47.9813 29.5036 47.839 29.4486 47.7062C29.3936 47.5734 29.313 47.4528 29.2113 47.3512L23.4227 41.5625L29.2113 35.7738C29.313 35.6722 29.3937 35.5516 29.4487 35.4188C29.5038 35.2861 29.5321 35.1437 29.5321 35C29.5321 34.8563 29.5038 34.7139 29.4487 34.5812C29.3937 34.4484 29.313 34.3278 29.2113 34.2262ZM57.9688 24.0625V59.0625C57.9688 59.9327 57.623 60.7673 57.0077 61.3827C56.3923 61.998 55.5577 62.3438 54.6875 62.3438H15.3125C14.4423 62.3438 13.6077 61.998 12.9923 61.3827C12.377 60.7673 12.0313 59.9327 12.0313 59.0625V10.9375C12.0312 10.0673 12.377 9.23266 12.9923 8.61731C13.6077 8.00195 14.4423 7.65625 15.3125 7.65625H41.5625C41.7062 7.65614 41.8485 7.68433 41.9812 7.73923C42.114 7.79412 42.2347 7.87463 42.3363 7.97617L57.6488 23.2887C57.7504 23.3903 57.8309 23.511 57.8858 23.6438C57.9407 23.7765 57.9689 23.9188 57.9688 24.0625ZM42.6562 22.9688H54.2336L42.6562 11.3887V22.9688ZM55.7812 59.0625V25.1562H41.5625C41.2724 25.1562 40.9942 25.041 40.7891 24.8359C40.584 24.6308 40.4688 24.3526 40.4688 24.0625V9.84375H15.3125C15.0224 9.84375 14.7442 9.95898 14.5391 10.1641C14.334 10.3692 14.2188 10.6474 14.2188 10.9375V59.0625C14.2188 59.3526 14.334 59.6308 14.5391 59.8359C14.7442 60.041 15.0224 60.1562 15.3125 60.1562H54.6875C54.9776 60.1562 55.2558 60.041 55.4609 59.8359C55.666 59.6308 55.7812 59.3526 55.7812 59.0625Z" fill="url(#paint0_linear_321_110)"/>
<defs>
<linearGradient id="paint0_linear_321_110" x1="35" y1="7.65625" x2="35" y2="62.3438" gradientUnits="userSpaceOnUse">
<stop stop-color="#0089FF"/>
<stop offset="1" stop-color="#4B36E7"/>
</linearGradient>
</defs>
</svg>
