<svg width="70" height="70" viewBox="0 0 70 70" fill="none" xmlns="http://www.w3.org/2000/svg">
<path d="M10.5 14.5C9.39543 14.5 8.5 15.3954 8.5 16.5V46C8.5 47.1046 9.39543 48 10.5 48H25.4167V34.3333C25.4167 32.7862 26.0312 31.3025 27.1252 30.2085C28.2192 29.1146 29.7029 28.5 31.25 28.5H45.8333C47.3804 28.5 48.8642 29.1146 49.9581 30.2085C51.0521 31.3025 51.6667 32.7862 51.6667 34.3333V48H58.5C59.6046 48 60.5 47.1046 60.5 46V16.5C60.5 15.3954 59.6046 14.5 58.5 14.5H10.5ZM25.4167 51.8333H10.8333C9.28624 51.8333 7.80251 51.2188 6.70854 50.1248C5.61458 49.0308 5 47.5471 5 46V16.8333C5 15.2862 5.61458 13.8025 6.70854 12.7085C7.80251 11.6146 9.28624 11 10.8333 11H57.5C59.0471 11 60.5308 11.6146 61.6248 12.7085C62.7188 13.8025 63.3333 15.2862 63.3333 16.8333V46C63.3333 47.5471 62.7188 49.0308 61.6248 50.1248C60.5308 51.2188 59.0471 51.8333 57.5 51.8333H51.6667V57.6667C51.6667 59.2138 51.0521 60.6975 49.9581 61.7915C48.8642 62.8854 47.3804 63.5 45.8333 63.5H31.25C29.7029 63.5 28.2192 62.8854 27.1252 61.7915C26.0312 60.6975 25.4167 59.2138 25.4167 57.6667V51.8333ZM32.7083 57.6667C32.3216 57.6667 31.9506 57.8203 31.6771 58.0938C31.4036 58.3673 31.25 58.7382 31.25 59.125C31.25 59.5118 31.4036 59.8827 31.6771 60.1562C31.9506 60.4297 32.3216 60.5833 32.7083 60.5833C33.0951 60.5833 33.466 60.4297 33.7395 60.1562C34.013 59.8827 34.1667 59.5118 34.1667 59.125C34.1667 58.7382 34.013 58.3673 33.7395 58.0938C33.466 57.8203 33.0951 57.6667 32.7083 57.6667ZM44.375 57.6667C43.9882 57.6667 43.6173 57.8203 43.3438 58.0938C43.0703 58.3673 42.9167 58.7382 42.9167 59.125C42.9167 59.5118 43.0703 59.8827 43.3438 60.1562C43.6173 60.4297 43.9882 60.5833 44.375 60.5833C44.7618 60.5833 45.1327 60.4297 45.4062 60.1562C45.6797 59.8827 45.8333 59.5118 45.8333 59.125C45.8333 58.7382 45.6797 58.3673 45.4062 58.0938C45.1327 57.8203 44.7618 57.6667 44.375 57.6667ZM37.0833 57.6667V60.5833H40V57.6667H37.0833ZM30 31C28.8954 31 28 31.8954 28 33V54.5C28 55.6046 28.8954 56.5 30 56.5H47.5C48.6046 56.5 49.5 55.6046 49.5 54.5V33C49.5 31.8954 48.6046 31 47.5 31H30Z" fill="url(#paint0_linear_321_108)"/>
<defs>
<linearGradient id="paint0_linear_321_108" x1="34.1667" y1="11" x2="34.1667" y2="63.5" gradientUnits="userSpaceOnUse">
<stop stop-color="#0089FF"/>
<stop offset="1" stop-color="#4C42E9"/>
</linearGradient>
</defs>
</svg>
