<svg width="60" height="60" viewBox="0 0 60 60" fill="none" xmlns="http://www.w3.org/2000/svg">
<g clip-path="url(#clip0_321_116)">
<path d="M60 -5.85522e-05C60 -5.85522e-05 46.875 -1.50006 34.875 10.4999C28.875 16.1249 24 23.6249 20.25 30.3749L10.875 28.1249L4.875 34.1249L15.375 39.3749C14.25 41.6249 13.875 43.1249 13.875 43.1249L16.875 46.1249C16.875 46.1249 18.375 45.3749 20.625 44.6249L25.875 55.1249L31.875 49.1249L30 39.7499C36.375 35.9999 44.25 31.1249 49.875 25.4999C61.5 13.4999 60 -5.85522e-05 60 -5.85522e-05ZM48 17.9999C46.5 19.4999 43.875 19.4999 42 17.9999C40.5 16.4999 40.5 13.8749 42 11.9999C43.5 10.4999 46.125 10.4999 48 11.9999C49.5 13.4999 49.5 16.1249 48 17.9999Z" fill="url(#paint0_linear_321_116)"/>
<path d="M15.0002 53.2501C12.0002 56.2501 5.25018 54.7501 5.25018 54.7501C5.25018 54.7501 3.75018 48.0001 6.75018 45.0001C9.75018 42.0001 12.3752 41.6251 12.3752 41.6251C12.3752 41.6251 7.50018 40.5001 4.50018 43.8751C-1.49982 49.8751 0.750179 59.6251 0.750179 59.6251C0.750179 59.6251 10.5002 61.8751 16.5002 55.8751C19.8752 52.5001 18.7502 47.6251 18.7502 47.6251C18.7502 47.6251 18.0002 50.2501 15.0002 53.2501Z" fill="url(#paint1_linear_321_116)"/>
</g>
<defs>
<linearGradient id="paint0_linear_321_116" x1="32.4691" y1="-0.0600586" x2="32.4691" y2="55.1249" gradientUnits="userSpaceOnUse">
<stop stop-color="#0089FF"/>
<stop offset="1" stop-color="#4B3AE8"/>
</linearGradient>
<linearGradient id="paint1_linear_321_116" x1="9.63355" y1="41.4451" x2="9.63355" y2="60.0383" gradientUnits="userSpaceOnUse">
<stop stop-color="#0089FF"/>
<stop offset="1" stop-color="#4B3AE8"/>
</linearGradient>
<clipPath id="clip0_321_116">
<rect width="60" height="60" fill="white"/>
</clipPath>
</defs>
</svg>
